HIERARCHY
ROOT Hips
{
	OFFSET 0.00000 0.00000 0.00000
	CHANNELS 6 Xposition Yposition Zposition Zrotation Yrotation Xrotation 
	JOINT LHipJoint
	{
		OFFSET 0 0 0
		CHANNELS 3 Zrotation Yrotation Xrotation
		JOINT LeftUpLeg
		{
			OFFSET 1.64577 -1.42384 0.94276
			CHANNELS 3 Zrotation Yrotation Xrotation
			JOINT LeftLeg
			{
				OFFSET 2.11538 -5.81197 0.00000
				CHANNELS 3 Zrotation Yrotation Xrotation
				JOINT LeftFoot
				{
					OFFSET 2.36541 -6.49893 0.00000
					CHANNELS 3 Zrotation Yrotation Xrotation
					JOINT LeftToeBase
					{
						OFFSET 0.17759 -0.48793 1.73865
						CHANNELS 3 Zrotation Yrotation Xrotation
						End Site
						{
							OFFSET 0.00000 -0.00000 0.91205
						}
					}
				}
			}
		}
	}
	JOINT RHipJoint
	{
		OFFSET 0 0 0
		CHANNELS 3 Zrotation Yrotation Xrotation
		JOINT RightUpLeg
		{
			OFFSET -1.43750 -1.42384 0.94276
			CHANNELS 3 Zrotation Yrotation Xrotation
			JOINT RightLeg
			{
				OFFSET -2.10480 -5.78291 0.00000
				CHANNELS 3 Zrotation Yrotation Xrotation
				JOINT RightFoot
				{
					OFFSET -2.34880 -6.45329 0.00000
					CHANNELS 3 Zrotation Yrotation Xrotation
					JOINT RightToeBase
					{
						OFFSET -0.22842 -0.62757 1.80469
						CHANNELS 3 Zrotation Yrotation Xrotation
						End Site
						{
							OFFSET -0.00000 -0.00000 0.95886
						}
					}
				}
			}
		}
	}
	JOINT LowerBack
	{
		OFFSET 0 0 0
		CHANNELS 3 Zrotation Yrotation Xrotation
		JOINT Spine
		{
			OFFSET 0.06217 1.93758 -0.49272
			CHANNELS 3 Zrotation Yrotation Xrotation
			JOINT Spine1
			{
				OFFSET -0.03114 2.03621 -0.05830
				CHANNELS 3 Zrotation Yrotation Xrotation
				JOINT Neck
				{
					OFFSET 0 0 0
					CHANNELS 3 Zrotation Yrotation Xrotation
					JOINT Neck1
					{
						OFFSET 0.04421 1.41010 0.26562
						CHANNELS 3 Zrotation Yrotation Xrotation
						JOINT Head
						{
							OFFSET -0.13407 1.43847 0.06181
							CHANNELS 3 Zrotation Yrotation Xrotation
							End Site
							{
								OFFSET -0.04980 1.45844 -0.00689
							}
						}
					}
				}
				JOINT LeftShoulder
				{
					OFFSET 0 0 0
					CHANNELS 3 Zrotation Yrotation Xrotation
					JOINT LeftArm
					{
						OFFSET 2.18382 1.47753 -0.35694
						CHANNELS 3 Zrotation Yrotation Xrotation
						JOINT LeftForeArm
						{
							OFFSET 5.05460 -0.00000 0.00000
							CHANNELS 3 Zrotation Yrotation Xrotation
							JOINT LeftHand
							{
								OFFSET 3.39013 -0.00000 0.00000
								CHANNELS 3 Zrotation Yrotation Xrotation
								JOINT LeftFingerBase
								{
									OFFSET 0 0 0
									CHANNELS 3 Zrotation Yrotation Xrotation
									JOINT LeftHandIndex1
									{
										OFFSET 0.57242 -0.00000 -0.00000
										CHANNELS 3 Zrotation Yrotation Xrotation
										End Site
										{
											OFFSET 0.46150 -0.00000 -0.00000
										}
									}
								}
								JOINT LThumb
								{
									OFFSET 0 0 0
									CHANNELS 3 Zrotation Yrotation Xrotation
									End Site
									{
										OFFSET 0.46855 -0.00000 0.46855
									}
								}
							}
						}
					}
				}
				JOINT RightShoulder
				{
					OFFSET 0 0 0
					CHANNELS 3 Zrotation Yrotation Xrotation
					JOINT RightArm
					{
						OFFSET -2.06033 1.72839 -0.47437
						CHANNELS 3 Zrotation Yrotation Xrotation
						JOINT RightForeArm
						{
							OFFSET -5.07010 -0.00000 0.00000
							CHANNELS 3 Zrotation Yrotation Xrotation
							JOINT RightHand
							{
								OFFSET -3.14957 -0.00000 -0.00000
								CHANNELS 3 Zrotation Yrotation Xrotation
								JOINT RightFingerBase
								{
									OFFSET 0 0 0
									CHANNELS 3 Zrotation Yrotation Xrotation
									JOINT RightHandIndex1
									{
										OFFSET -0.71819 -0.00000 -0.00000
										CHANNELS 3 Zrotation Yrotation Xrotation
										End Site
										{
											OFFSET -0.57902 -0.00000 -0.00000
										}
									}
								}
								JOINT RThumb
								{
									OFFSET 0 0 0
									CHANNELS 3 Zrotation Yrotation Xrotation
									End Site
									{
										OFFSET -0.58786 -0.00000 0.58786
									}
								}
							}
						}
					}
				}
			}
		}
	}
}
MOTION
Frames: 5
Frame Time: .0083333
44.0019 13.4110 3.5277 -176.6150 9.1487 186.3920 0.0000 0.0000 0.0000 0.4902 -32.8838 -41.1284 13.7893 19.0489 71.5601 2.0437 8.5090 -31.1535 1.8638 -8.5765 -24.4794 0.0000 0.0000 0.0000 21.6464 18.5201 -47.0470 -12.8486 -18.7268 68.6547 -1.8373 -9.9036 -30.7923 -2.4574 9.7600 -28.2030 1.8484 -1.9866 31.3352 -2.7992 1.1046 11.9767 -4.6324 1.9968 -3.4948 16.7861 12.7784 1.6310 -28.7190 16.2908 -17.3888 -11.6547 9.5056 -1.0777 -0.0000 -0.0000 0.0000 -34.1207 -14.4129 -10.4031 134.1767 -51.1655 -97.1217 -0.0000 -0.0000 14.0706 39.7751 14.0234 11.4043 -7.1250 0.0000 -0.0000 11.9606 47.6179 0.7832 -0.0000 -0.0000 0.0000 47.1922 27.7474 1.7517 -146.3686 43.8097 -106.1428 0.0000 -0.0000 -13.1622 -38.9311 -2.2729 1.8350 7.1250 -0.0000 -0.0000 -9.9894 -32.7855 -3.0286
44.0107 13.3898 3.5485 -176.4260 8.9210 186.4390 0.0000 0.0000 0.0000 0.9109 -33.2666 -41.5225 13.9213 19.0900 71.9640 1.9955 8.8779 -31.0910 1.9065 -8.6686 -24.7641 0.0000 0.0000 0.0000 21.8070 18.6797 -47.2616 -12.9211 -18.7535 68.8804 -1.8454 -9.9979 -30.9086 -2.3681 9.5940 -27.6717 1.9759 -2.0405 31.4893 -2.7251 1.1011 11.9958 -4.6285 2.0039 -3.5428 16.8433 12.7435 1.7014 -28.7152 16.2384 -17.5521 -11.6880 9.4927 -1.1426 -0.0000 0.0000 0.0000 -34.1802 -14.5201 -10.6135 134.2948 -51.1093 -97.2137 -0.0000 -0.0000 14.1043 39.8593 14.0550 11.4622 -7.1250 0.0000 -0.0000 12.0481 47.6723 0.8055 -0.0000 0.0000 0.0000 47.1277 27.9708 1.6943 -146.2927 43.8667 -106.0902 0.0000 -0.0000 -13.0901 -38.8776 -2.1851 1.7607 7.1250 -0.0000 -0.0000 -9.9359 -32.6731 -3.0393
44.0178 13.3692 3.5693 -176.2230 8.7159 186.4710 0.0000 0.0000 0.0000 1.3213 -33.6101 -41.9172 14.0614 19.1326 72.3920 1.9663 9.0748 -31.0379 1.8187 -8.4777 -24.1746 0.0000 0.0000 0.0000 21.9807 18.8194 -47.4501 -12.9881 -18.7779 69.0887 -1.8538 -10.0477 -30.9950 -2.2858 9.4377 -27.1742 2.1231 -2.1022 31.6431 -2.6669 1.0995 12.0315 -4.6537 2.0161 -3.5708 16.9052 12.7056 1.7852 -28.7122 16.1812 -17.7287 -11.7253 9.4783 -1.2141 -0.0000 0.0000 0.0000 -34.1970 -14.6342 -10.7989 134.3670 -51.0748 -97.2699 -0.0000 -0.0000 14.1593 39.9530 14.0790 11.5180 -7.1250 0.0000 -0.0000 12.1447 47.7191 0.8263 -0.0000 0.0000 0.0000 47.0721 28.2147 1.6397 -146.2273 43.9156 -106.0448 0.0000 -0.0000 -13.0442 -38.8594 -2.1044 1.6947 7.1250 -0.0000 -0.0000 -9.9118 -32.5708 -3.0566
44.0225 13.3490 3.5896 -176.0120 8.5386 186.4850 0.0000 0.0000 0.0000 1.7019 -33.9046 -42.3025 14.2078 19.1758 72.8380 1.9599 9.0908 -31.0088 1.5965 -7.9696 -22.6217 0.0000 0.0000 0.0000 22.1592 18.9419 -47.6087 -13.0497 -18.8000 69.2797 -1.8598 -10.0684 -31.0470 -2.2241 9.3181 -26.7956 2.2863 -2.1711 31.7940 -2.6242 1.0982 12.0817 -4.7050 2.0320 -3.5801 16.9689 12.6666 1.8881 -28.7210 16.1227 -17.9153 -11.7697 9.4650 -1.2903 0.0000 0.0000 0.0000 -34.1697 -14.7393 -10.9437 134.3835 -51.0670 -97.2827 -0.0000 -0.0000 14.2269 40.0589 14.0931 11.5712 -7.1250 0.0000 -0.0000 12.2529 47.7559 0.8451 0.0000 0.0000 0.0000 47.0229 28.4710 1.6038 -146.1684 43.9595 -106.0040 0.0000 -0.0000 -13.0122 -38.8543 -2.0302 1.6347 7.1250 -0.0000 -0.0000 -9.8990 -32.4769 -3.0753
44.0245 13.3290 3.6089 -175.8020 8.3850 186.4730 0.0000 0.0000 0.0000 2.0268 -34.1458 -42.6591 14.3580 19.2191 73.2950 1.9725 8.9684 -31.0077 1.2867 -7.1879 -20.2731 0.0000 0.0000 0.0000 22.3340 19.0367 -47.7318 -13.1061 -18.8201 69.4547 -1.8621 -10.0749 -31.0657 -2.1904 9.2520 -26.5867 2.4574 -2.2511 31.9462 -2.5935 1.0902 12.1455 -4.7718 2.0479 -3.5743 17.0223 12.6298 2.0210 -28.7452 16.0671 -18.1161 -11.8212 9.4566 -1.3741 -0.0000 0.0000 0.0000 -34.1089 -14.8097 -11.0398 134.3544 -51.0809 -97.2600 -0.0000 -0.0000 14.2963 40.1707 14.0858 11.6101 -7.1250 0.0000 -0.0000 12.3650 47.7672 0.8566 -0.0000 0.0000 0.0000 46.9682 28.7411 1.6048 -146.1047 44.0070 -105.9597 0.0000 -0.0000 -12.9783 -38.8535 -1.9680 1.5846 7.1250 -0.0000 -0.0000 -9.8910 -32.3982 -3.0918
